<svg class="icon icon--logo" viewBox="0 0 1203.000000 312.000000"
 preserveAspectRatio="xMidYMid meet">

<g transform="translate(0.000000,312.000000) scale(0.100000,-0.100000)"
fill="#000000" stroke="none">
<path d="M6550 1570 l0 -1460 275 0 274 0 3 687 c3 687 3 688 26 755 48 141
148 248 271 289 53 18 80 21 160 17 143 -7 225 -50 273 -142 46 -89 48 -127
48 -888 l0 -718 275 0 276 0 -4 833 c-3 763 -5 837 -21 892 -69 232 -227 382
-471 446 -113 30 -318 30 -428 1 -160 -44 -316 -149 -378 -256 l-29 -51 0 528
0 527 -275 0 -275 0 0 -1460z"/>
<path d="M4640 1867 c0 -626 4 -1002 11 -1072 32 -320 165 -528 414 -650 139
-68 198 -79 420 -80 217 0 275 11 410 75 251 120 398 357 425 680 5 63 10 247
10 408 l0 292 -254 0 -255 0 -3 -347 c-3 -338 -4 -350 -28 -418 -19 -56 -36
-81 -80 -126 -65 -66 -118 -85 -228 -82 -138 2 -227 71 -274 211 -22 66 -23
78 -26 580 l-3 512 576 0 575 0 0 200 0 200 -575 0 -575 0 0 290 0 290 -270 0
-270 0 0 -963z"/>
<path d="M1108 2631 c-157 -51 -181 -281 -38 -361 53 -29 128 -32 176 -7 134
69 141 274 13 347 -43 23 -112 33 -151 21z"/>
<path d="M3395 2300 c-185 -17 -287 -44 -420 -113 -192 -100 -287 -268 -288
-507 -1 -224 76 -370 260 -490 123 -81 244 -125 649 -233 275 -74 355 -122
370 -222 22 -149 -96 -240 -327 -252 -170 -10 -294 25 -383 107 -48 44 -86
124 -86 180 l0 30 -280 0 -280 0 0 -37 c0 -68 29 -176 68 -258 117 -243 356
-391 707 -436 133 -17 446 -6 557 20 172 40 328 125 417 228 51 58 105 165
128 253 27 100 24 304 -4 395 -39 126 -129 223 -268 293 -68 34 -247 91 -475
152 -396 106 -506 162 -526 265 -17 92 30 158 137 190 77 24 274 27 356 7 109
-28 179 -99 207 -210 l12 -47 263 -3 262 -2 -7 57 c-36 299 -192 499 -454 582
-144 46 -407 68 -595 51z"/>
<path d="M9480 2299 c-303 -33 -551 -186 -691 -425 -123 -210 -165 -406 -156
-729 6 -216 22 -321 74 -478 103 -311 307 -496 637 -578 105 -26 368 -37 487
-20 283 42 514 203 649 453 33 61 90 197 90 213 0 3 -125 5 -279 5 l-279 0
-27 -55 c-41 -86 -121 -142 -237 -170 -164 -39 -323 6 -428 122 -80 87 -136
225 -142 348 l-3 50 714 3 714 2 -7 133 c-34 653 -272 1018 -726 1110 -99 20
-284 28 -390 16z m293 -468 c80 -31 165 -112 206 -195 30 -61 60 -173 61 -223
l0 -23 -425 0 -425 0 0 23 c0 39 37 172 61 218 28 57 124 156 174 182 74 38
117 47 205 43 57 -2 104 -10 143 -25z"/>
<path d="M11810 2303 c-190 -13 -352 -97 -450 -232 -25 -34 -48 -61 -52 -61
-5 0 -8 54 -8 120 l0 120 -255 0 -255 0 0 -1070 0 -1070 275 0 275 0 0 608 c0
660 2 687 56 796 30 63 109 143 170 174 71 36 162 54 274 55 58 0 115 -3 128
-7 l22 -7 0 290 0 291 -67 -2 c-38 -1 -88 -3 -113 -5z"/>
<path d="M164 2004 l23 -69 129 -3 c1241 -28 1740 -38 1742 -36 4 2 -24 123
-29 128 -2 2 -341 11 -754 20 -412 9 -837 19 -942 22 l-193 6 24 -68z"/>
<path d="M1210 1554 c-289 -6 -576 -12 -637 -13 l-113 -1 0 -60 0 -60 58 0
c245 1 1627 41 1632 47 4 4 14 29 23 56 l16 47 -227 -2 c-125 0 -463 -7 -752
-14z"/>
<path d="M160 1163 c0 -5 6 -30 13 -58 l13 -50 775 -2 774 -2 42 59 43 60
-830 0 c-457 0 -830 -3 -830 -7z"/>
<path d="M491 698 c-17 -39 -30 -72 -29 -73 5 -4 1590 -36 1594 -32 2 1 12 31
23 65 l19 62 -42 0 c-22 0 -372 11 -776 25 -404 14 -740 25 -746 25 -6 0 -25
-32 -43 -72z"/>
<path d="M115 258 c-10 -29 -20 -59 -23 -65 -3 -10 185 -13 922 -13 l926 0
-32 65 -32 65 -871 0 -871 0 -19 -52z"/>
</g>
</svg>
